<?xml version="1.0" encoding="UTF-8"?>
<svg id="Layer_2" data-name="Layer 2" xmlns="http://www.w3.org/2000/svg" viewBox="0 0 349.49 108.14">
  <defs>
    <style>
      .cls-1 {
        fill: none;
      }

      .cls-2 {
        fill: #666966;
        stroke:#666966;
        stroke-width:.4px;
      }
    </style>
  </defs>
  <g id="Layer_1-2" data-name="Layer 1">
    <g>
      <rect class="cls-1" x="232.25" y="1.05" width="1.94" height="2.94"/>
      <rect class="cls-1" x="232.25" y="4.29" width="1.94" height="2.62"/>
      <rect class="cls-1" x="232.25" y=".3" width="1.94" height=".45"/>
      <rect class="cls-1" x="69.15" y="9.96" width="1.91" height="2.42"/>
      <rect class="cls-1" x="233.3" y="105.47" width=".95" height="2.37"/>
      <rect class="cls-1" x="155.4" y="19.11" width="6.67" height="10.31"/>
      <rect class="cls-1" x="162.38" y="19.11" width="63.55" height="10.31"/>
      <rect class="cls-1" x="232.25" y="7.21" width="1.94" height="2.62"/>
      <rect class="cls-1" x="155.4" y="105.47" width=".95" height="2.37"/>
      <path class="cls-1" d="M197.91,72.46c-.75,0-1.12.37-1.12,1.12s.37,1.12,1.12,1.12,1.12-.37,1.12-1.12-.37-1.12-1.12-1.12ZM197.91,74.46c-.58,0-.87-.29-.87-.87s.29-.87.87-.87.87.29.87.87-.29.87-.87.87Z"/>
      <path class="cls-1" d="M197.91,73.02c-.38,0-.57.19-.57.57s.19.57.57.57.57-.19.57-.57-.19-.57-.57-.57ZM198.06,74.08h-.3v-1.01h.3v1.01Z"/>
      <rect class="cls-1" x="69.15" y="7.2" width="1.91" height="2.46"/>
      <rect class="cls-1" x="232.05" y="105.47" width=".95" height="2.37"/>
      <rect class="cls-1" x="154.15" y="105.47" width=".95" height="2.37"/>
      <rect class="cls-1" x="230.8" y="104.35" width=".95" height=".82"/>
      <rect class="cls-1" x="229.55" y="104.35" width=".95" height=".82"/>
      <polygon class="cls-1" points="70.75 15.56 71.06 15.56 71.06 12.68 69.15 12.68 69.15 15.56 69.42 15.56 70.75 15.56"/>
      <rect class="cls-1" x="159.1" y="33.42" width="70.14" height="33.04"/>
      <path class="cls-1" d="M159.02,33.12h70.33l3.37-3.39h-77.1l3.4,3.39ZM229.08,30.79c.06-.06.13-.09.21-.09h0c.08,0,.15.03.21.09.06.06.09.13.09.21,0,.08-.03.15-.09.21-.06.06-.13.09-.21.09h0c-.08,0-.15-.03-.21-.09-.06-.06-.09-.13-.09-.21s.03-.15.09-.21ZM229.08,32.47c.06-.06.13-.09.21-.09h0c.08,0,.15.03.21.09.06.06.09.13.09.21,0,.08-.03.15-.09.21-.06.06-.13.09-.21.09h0c-.08,0-.15-.03-.21-.09s-.09-.13-.09-.21.03-.15.09-.21ZM206.23,30.79c.06-.06.13-.09.21-.09h.08c.08,0,.15.03.21.09.06.06.09.13.09.21,0,.08-.03.15-.09.21-.06.06-.13.09-.21.09h-.08c-.08,0-.15-.03-.21-.09-.06-.06-.09-.13-.09-.21s.03-.15.09-.21ZM206.23,32.47c.06-.06.13-.09.21-.09h.08c.08,0,.15.03.21.09.06.06.09.13.09.21,0,.08-.03.15-.09.21-.06.06-.13.09-.21.09h-.08c-.08,0-.15-.03-.21-.09-.06-.06-.09-.13-.09-.21s.03-.15.09-.21ZM182.71,30.79c.06-.06.13-.09.21-.09h.07c.08,0,.15.03.21.09.06.06.09.13.09.21s-.03.15-.09.21c-.06.06-.13.09-.21.09h-.07c-.08,0-.15-.03-.21-.09-.06-.06-.09-.13-.09-.21s.03-.15.09-.21ZM182.71,32.47c.06-.06.13-.09.21-.09h.07c.08,0,.15.03.21.09.06.06.09.13.09.21s-.03.15-.09.21c-.06.06-.13.09-.21.09h-.07c-.08,0-.15-.03-.21-.09-.06-.06-.09-.13-.09-.21s.03-.15.09-.21ZM159.18,30.79c.06-.06.13-.09.21-.09h0c.08,0,.15.03.21.09.06.06.09.13.09.21s-.03.15-.09.21c-.06.06-.13.09-.21.09h0c-.08,0-.15-.03-.21-.09-.06-.06-.09-.13-.09-.21,0-.08.03-.15.09-.21ZM159.18,32.47c.06-.06.13-.09.21-.09h0c.08,0,.15.03.21.09.06.06.09.13.09.21s-.03.15-.09.21c-.06.06-.13.09-.21.09h0c-.08,0-.15-.03-.21-.09-.06-.06-.09-.13-.09-.21,0-.08.03-.15.09-.21Z"/>
      <rect class="cls-1" x="137.35" y="19.11" width="5.88" height="10.32"/>
      <path class="cls-1" d="M159.02,66.76l-3.41,3.39h77.11l-3.38-3.39h-70.31ZM159.78,69.11c-.06.06-.13.09-.21.09h0c-.08,0-.15-.03-.21-.09s-.09-.13-.09-.21.03-.15.09-.21c.06-.06.13-.09.21-.09h0c.08,0,.15.03.21.09.06.06.09.13.09.21s-.03.15-.09.21ZM159.78,67.43c-.06.06-.13.09-.21.09h0c-.08,0-.15-.03-.21-.09-.06-.06-.09-.13-.09-.21s.03-.15.09-.21.13-.09.21-.09h0c.08,0,.15.03.21.09s.09.13.09.21-.03.15-.09.21ZM182.97,69.11c-.06.06-.13.09-.21.09h0c-.08,0-.15-.03-.21-.09-.06-.06-.09-.13-.09-.21s.03-.15.09-.21c.06-.06.13-.09.21-.09h0c.08,0,.15.03.21.09.06.06.09.13.09.21s-.03.15-.09.21ZM182.97,67.43c-.06.06-.13.09-.21.09h0c-.08,0-.15-.03-.21-.09-.06-.06-.09-.13-.09-.21s.03-.15.09-.21c.06-.06.13-.09.21-.09h0c.08,0,.15.03.21.09.06.06.09.13.09.21s-.03.15-.09.21ZM206.49,69.11c-.06.06-.13.09-.21.09h0c-.08,0-.15-.03-.21-.09s-.09-.13-.09-.21.03-.15.09-.21c.06-.06.13-.09.21-.09h0c.08,0,.15.03.21.09.06.06.09.13.09.21s-.03.15-.09.21ZM206.49,67.43c-.06.06-.13.09-.21.09h0c-.08,0-.15-.03-.21-.09-.06-.06-.09-.13-.09-.21s.03-.15.09-.21.13-.09.21-.09h0c.08,0,.15.03.21.09s.09.13.09.21-.03.15-.09.21ZM229.51,69.11c-.06.06-.13.09-.21.09h0c-.08,0-.15-.03-.21-.09-.06-.06-.09-.13-.09-.21s.03-.15.09-.21c.06-.06.13-.09.21-.09h0c.08,0,.15.03.21.09.06.06.09.13.09.21,0,.08-.03.15-.09.21ZM229.6,67.22c0,.08-.03.15-.09.21-.06.06-.13.09-.21.09h0c-.08,0-.15-.03-.21-.09-.06-.06-.09-.13-.09-.21s.03-.15.09-.21c.06-.06.13-.09.21-.09h0c.08,0,.15.03.21.09s.09.13.09.21Z"/>
      <path class="cls-1" d="M155.4,93.87h7.27v10.22h31.35v-33.64h-38.62v23.42ZM189.67,72.58c.28-.28.61-.42,1-.42s.73.14,1.01.42c.28.28.42.61.42,1.01s-.14.73-.42,1.01c-.28.28-.61.42-1.01.42s-.73-.14-1-.42c-.28-.28-.42-.61-.42-1.01s.14-.73.42-1.01Z"/>
      <rect class="cls-1" x="243.81" y="105.47" width=".95" height="2.37"/>
      <rect class="cls-1" x="69.15" y="3.75" width="1.91" height="3.15"/>
      <rect class="cls-1" x="232.85" y="13.38" width=".73" height="5.43"/>
      <rect class="cls-1" x="226.23" y="19.11" width="6.77" height="10.31"/>
      <polygon class="cls-1" points="234.19 10.14 232.25 10.14 232.25 13.07 232.55 13.07 233.74 13.07 234.19 13.07 234.19 10.14"/>
      <polygon class="cls-1" points="74.62 25.43 73.96 25.27 73.96 32.49 74.62 32.68 74.62 25.43"/>
      <polygon class="cls-1" points="69.72 23.92 70.44 24.1 70.44 15.86 69.72 15.86 69.72 23.92"/>
      <path class="cls-1" d="M158.8,33.33l-3.4-3.39v39.99l3.4-3.38v-33.22ZM156.7,66.78s-.11.07-.18.07-.13-.02-.18-.07c-.05-.05-.07-.11-.07-.18s.02-.13.07-.18c.05-.05.11-.07.18-.07s.13.02.18.07c.05.05.07.11.07.18s-.02.13-.07.18ZM156.7,58.71s-.11.07-.18.07c-.07,0-.13-.02-.18-.07-.05-.05-.07-.11-.07-.18s.02-.13.07-.18c.05-.05.11-.07.18-.07s.13.02.18.07c.05.05.07.11.07.18s-.02.13-.07.18ZM156.7,50.29s-.11.07-.18.07-.13-.02-.18-.07c-.05-.05-.07-.11-.07-.18s.02-.13.07-.18c.05-.05.11-.07.18-.07s.13.02.18.07c.05.05.07.11.07.18s-.02.13-.07.18ZM156.7,34.14s-.11.07-.18.07-.13-.02-.18-.07c-.05-.05-.07-.11-.07-.18s.02-.13.07-.18c.05-.05.11-.07.18-.07s.13.02.18.07c.05.05.07.11.07.18s-.02.13-.07.18ZM158.38,66.78s-.11.07-.18.07-.13-.02-.18-.07c-.05-.05-.07-.11-.07-.18s.02-.13.07-.18c.05-.05.11-.07.18-.07s.13.02.18.07c.05.05.07.11.07.18s-.02.13-.07.18ZM158.38,58.71s-.11.07-.18.07c-.07,0-.13-.02-.18-.07-.05-.05-.07-.11-.07-.18s.02-.13.07-.18c.05-.05.11-.07.18-.07s.13.02.18.07c.05.05.07.11.07.18s-.02.13-.07.18ZM158.38,50.29s-.11.07-.18.07-.13-.02-.18-.07c-.05-.05-.07-.11-.07-.18s.02-.13.07-.18.11-.07.18-.07.13.02.18.07.07.11.07.18-.02.13-.07.18ZM158.38,34.14s-.11.07-.18.07-.13-.02-.18-.07c-.05-.05-.07-.11-.07-.18s.02-.13.07-.18c.05-.05.11-.07.18-.07s.13.02.18.07c.05.05.07.11.07.18s-.02.13-.07.18Z"/>
      <rect class="cls-1" x="155.4" y="94.17" width="6.97" height="9.92"/>
      <path class="cls-1" d="M190.67,74.16c.38,0,.57-.19.57-.57s-.19-.57-.57-.57-.57.19-.57.57.19.57.57.57ZM190.52,73.07h.3v1.01h-.3v-1.01Z"/>
      <polygon class="cls-1" points="150.33 104.09 155.1 104.09 155.1 70.45 155.1 70.3 155.1 29.57 155.1 29.42 155.1 19.11 150.33 19.11 150.33 104.09"/>
      <path class="cls-1" d="M190.67,74.71c.75,0,1.12-.37,1.12-1.12s-.37-1.12-1.12-1.12-1.12.37-1.12,1.12.37,1.12,1.12,1.12ZM190.67,72.71c.58,0,.87.29.87.87s-.29.87-.87.87-.87-.29-.87-.87.29-.87.87-.87Z"/>
      <rect class="cls-1" x="103.79" y="105.47" width=".95" height="2.37"/>
      <rect class="cls-1" x="99.63" y="19.11" width="4.99" height="84.98"/>
      <rect class="cls-1" x="144.39" y="105.47" width=".95" height="2.37"/>
      <rect class="cls-1" x="143.13" y="105.47" width=".95" height="2.37"/>
      <rect class="cls-1" x="107.84" y="104.39" width=".95" height=".78"/>
      <rect class="cls-1" x="105.04" y="105.47" width=".95" height="2.37"/>
      <path class="cls-1" d="M80.17,66.13l.45-22.79-14.65-.14-.79,22.93h14.99ZM68.02,65.1s-.11.07-.18.07-.13-.02-.18-.07c-.05-.05-.07-.11-.07-.18s.02-.13.07-.18c.05-.05.11-.07.18-.07s.13.02.18.07c.05.05.07.11.07.18s-.02.13-.07.18ZM77.76,65.1s-.11.07-.18.07-.13-.02-.18-.07c-.05-.05-.07-.11-.07-.18s.02-.13.07-.18c.05-.05.11-.07.18-.07s.13.02.18.07c.05.05.07.11.07.18s-.02.13-.07.18ZM79.08,49.6s.11-.07.18-.07.13.02.18.07c.05.05.07.11.07.18s-.02.13-.07.18c-.05.05-.11.07-.18.07s-.13-.02-.18-.07c-.05-.05-.07-.11-.07-.18s.02-.13.07-.18ZM78.75,59.02s.11-.07.18-.07.13.02.18.07c.05.05.07.11.07.18s-.02.13-.07.18c-.05.05-.11.07-.18.07s-.13-.02-.18-.07c-.05-.05-.07-.11-.07-.18s.02-.13.07-.18ZM77.74,44.22s.11-.07.18-.07.13.02.18.07c.05.05.07.11.07.18s-.02.13-.07.18c-.05.05-.11.07-.18.07s-.13-.02-.18-.07c-.05-.05-.07-.11-.07-.18s.02-.13.07-.18ZM68.33,44.22s.11-.07.18-.07.13.02.18.07c.05.05.07.11.07.18s-.02.13-.07.18c-.05.05-.11.07-.18.07s-.13-.02-.18-.07c-.05-.05-.07-.11-.07-.18s.02-.13.07-.18ZM68.09,45.5h10.28l-.52,17.85h-.15s0,.15,0,.15h-10.14l.52-17.99ZM66.65,49.6s.11-.07.18-.07.13.02.18.07c.05.05.07.11.07.18s-.02.13-.07.18c-.05.05-.11.07-.18.07s-.13-.02-.18-.07c-.05-.05-.07-.11-.07-.18s.02-.13.07-.18ZM66.32,59.02s.11-.07.18-.07.13.02.18.07c.05.05.07.11.07.18s-.02.13-.07.18c-.05.05-.11.07-.18.07s-.13-.02-.18-.07c-.05-.05-.07-.11-.07-.18s.02-.13.07-.18Z"/>
      <rect class="cls-1" x="106.59" y="104.39" width=".95" height=".78"/>
      <polygon class="cls-1" points="62 105.72 60.91 105.72 60.91 106.36 60.59 106.68 62.3 106.68 62 106.38 62 105.72"/>
      <path class="cls-1" d="M63.07,97.43h-4.55v8h8.04v-32.89h-3.67l.18,24.89ZM59.28,104.47s-.11.07-.18.07-.13-.02-.18-.07c-.05-.05-.07-.11-.07-.18s.02-.13.07-.18c.05-.05.11-.07.18-.07s.13.02.18.07c.05.05.07.11.07.18s-.02.13-.07.18ZM59.28,99.08s-.11.07-.18.07-.13-.02-.18-.07-.07-.11-.07-.18.02-.13.07-.18c.05-.05.11-.07.18-.07s.13.02.18.07c.05.05.07.11.07.18s-.02.13-.07.18ZM63.29,73.83s.11-.07.18-.07.13.02.18.07c.05.05.07.11.07.18s-.02.13-.07.18c-.05.05-.11.07-.18.07s-.13-.02-.18-.07c-.05-.05-.07-.11-.07-.18s.02-.13.07-.18ZM63.29,88.97s.11-.07.18-.07.13.02.18.07c.05.05.07.11.07.18s-.02.13-.07.18-.11.07-.18.07-.13-.02-.18-.07-.07-.11-.07-.18.02-.13.07-.18Z"/>
      <path class="cls-1" d="M62.59,72.53h-28.76l-.1,32.89h24.49v-8.3h4.55l-.18-24.59ZM38.66,80.9c0,.67-.33,1-1,1h-.87v-1.13h.67c.08,0,.11-.04.11-.11v-3.87c0-.08-.04-.11-.11-.11h-.67v-.98h.15v-.15h.72c.67,0,1,.33,1,1v4.35Z"/>
      <polygon class="cls-1" points="66.86 96.92 66.86 105.32 73.55 101.7 73.55 94.18 67.76 96.92 66.86 96.92"/>
      <polygon class="cls-1" points="73.48 73.03 68.7 74.08 68.7 96.14 73.48 93.88 73.48 73.03"/>
      <rect class="cls-1" x="137.35" y="29.73" width="5.88" height="64.14"/>
      <polygon class="cls-1" points="68.38 45.8 67.88 63.19 77.55 63.19 78.06 45.8 68.38 45.8"/>
      <path class="cls-1" d="M60.36,106.91l-.05.05-.11.11c-.06.06-.1.14-.1.23v.13h2.66v-.15c0-.09-.03-.17-.1-.23l-.17-.17v.1h-2.14v-.08Z"/>
      <polygon class="cls-1" points="104.92 104.09 106.29 104.09 108.94 104.09 110.8 104.09 110.8 94.17 104.92 94.17 104.92 104.09"/>
      <path class="cls-1" d="M4.7,68.6h57.78v.3H4.7l-.02,3.33h57.91l-.23-31.32H4.9l-.2,27.69ZM8.56,71.16s-.11.07-.18.07-.13-.02-.18-.07c-.05-.05-.07-.11-.07-.18s.02-.13.07-.18.11-.07.18-.07.13.02.18.07.07.11.07.18-.02.13-.07.18ZM8.56,69.81s-.11.07-.18.07-.13-.02-.18-.07c-.05-.05-.07-.11-.07-.18s.02-.13.07-.18c.05-.05.11-.07.18-.07s.13.02.18.07c.05.05.07.11.07.18s-.02.13-.07.18ZM25.36,71.16s-.11.07-.18.07-.13-.02-.18-.07c-.05-.05-.07-.11-.07-.18s.02-.13.07-.18c.05-.05.11-.07.18-.07s.13.02.18.07c.05.05.07.11.07.18s-.02.13-.07.18ZM25.36,69.81s-.11.07-.18.07-.13-.02-.18-.07c-.05-.05-.07-.11-.07-.18s.02-.13.07-.18c.05-.05.11-.07.18-.07s.13.02.18.07c.05.05.07.11.07.18s-.02.13-.07.18ZM42.15,71.16s-.11.07-.18.07-.13-.02-.18-.07-.07-.11-.07-.18.02-.13.07-.18c.05-.05.11-.07.18-.07s.13.02.18.07c.05.05.07.11.07.18s-.02.13-.07.18ZM42.15,69.81s-.11.07-.18.07-.13-.02-.18-.07-.07-.11-.07-.18.02-.13.07-.18c.05-.05.11-.07.18-.07s.13.02.18.07c.05.05.07.11.07.18s-.02.13-.07.18ZM58.95,71.16s-.11.07-.18.07-.13-.02-.18-.07-.07-.11-.07-.18.02-.13.07-.18c.05-.05.11-.07.18-.07s.13.02.18.07.07.11.07.18-.02.13-.07.18ZM58.95,69.81s-.11.07-.18.07-.13-.02-.18-.07-.07-.11-.07-.18.02-.13.07-.18c.05-.05.11-.07.18-.07s.13.02.18.07c.05.05.07.11.07.18s-.02.13-.07.18Z"/>
      <path class="cls-1" d="M112.55,53.97h23.01v-15.07h-23.01v15.07ZM119.08,52.99s-.11.07-.18.07-.13-.02-.18-.07c-.05-.05-.07-.11-.07-.18,0-.07.02-.13.07-.18.05-.05.11-.07.18-.07s.13.02.18.07c.05.05.07.11.07.18s-.02.13-.07.18ZM128.82,52.99s-.11.07-.18.07-.13-.02-.18-.07c-.05-.05-.07-.11-.07-.18s.02-.13.07-.18.11-.07.18-.07.13.02.18.07.07.11.07.18-.02.13-.07.18ZM134.17,41.53s.11-.07.18-.07.13.02.18.07c.05.05.07.11.07.18s-.02.13-.07.18c-.05.05-.11.07-.18.07s-.13-.02-.18-.07c-.05-.05-.07-.11-.07-.18s.02-.13.07-.18ZM134.17,51.28s.11-.07.18-.07.13.02.18.07c.05.05.07.11.07.18s-.02.13-.07.18c-.05.05-.11.07-.18.07s-.13-.02-.18-.07c-.05-.05-.07-.11-.07-.18s.02-.13.07-.18ZM128.46,40.18s.11-.07.18-.07.13.02.18.07c.05.05.07.11.07.18s-.02.13-.07.18c-.05.05-.11.07-.18.07s-.13-.02-.18-.07c-.05-.05-.07-.11-.07-.18s.02-.13.07-.18ZM119.06,40.18s.11-.07.18-.07.13.02.18.07c.05.05.07.11.07.18s-.02.13-.07.18c-.05.05-.11.07-.18.07s-.13-.02-.18-.07c-.05-.05-.07-.11-.07-.18s.02-.13.07-.18ZM114.79,41.13h18.38v.15h.15v10.45h-18.53v-10.6ZM113.68,41.53s.11-.07.18-.07.13.02.18.07c.05.05.07.11.07.18s-.02.13-.07.18c-.05.05-.11.07-.18.07s-.13-.02-.18-.07c-.05-.05-.07-.11-.07-.18s.02-.13.07-.18ZM113.35,50.95s.11-.07.18-.07.13.02.18.07c.05.05.07.11.07.18s-.02.13-.07.18-.11.07-.18.07-.13-.02-.18-.07c-.05-.05-.07-.11-.07-.18s.02-.13.07-.18Z"/>
      <polygon class="cls-1" points="73.79 93.73 73.85 93.7 73.85 101.53 74.44 101.21 74.44 66.43 73.79 66.43 73.79 93.73"/>
      <path class="cls-1" d="M4.9,40.61h57.45l-.02-3.33H4.93l-.02,3.33ZM58.59,38.5s.11-.07.18-.07.13.02.18.07c.05.05.07.11.07.18s-.02.13-.07.18c-.05.05-.11.07-.18.07s-.13-.02-.18-.07-.07-.11-.07-.18.02-.13.07-.18ZM58.59,39.84s.11-.07.18-.07.13.02.18.07c.05.05.07.11.07.18s-.02.13-.07.18c-.05.05-.11.07-.18.07s-.13-.02-.18-.07c-.05-.05-.07-.11-.07-.18s.02-.13.07-.18ZM41.8,38.5s.11-.07.18-.07.13.02.18.07.07.11.07.18-.02.13-.07.18c-.05.05-.11.07-.18.07s-.13-.02-.18-.07-.07-.11-.07-.18.02-.13.07-.18ZM41.8,39.84s.11-.07.18-.07.13.02.18.07c.05.05.07.11.07.18s-.02.13-.07.18c-.05.05-.11.07-.18.07s-.13-.02-.18-.07c-.05-.05-.07-.11-.07-.18s.02-.13.07-.18ZM25,38.5s.11-.07.18-.07.13.02.18.07c.05.05.07.11.07.18s-.02.13-.07.18-.11.07-.18.07-.13-.02-.18-.07c-.05-.05-.07-.11-.07-.18s.02-.13.07-.18ZM25,39.84s.11-.07.18-.07.13.02.18.07c.05.05.07.11.07.18s-.02.13-.07.18c-.05.05-.11.07-.18.07s-.13-.02-.18-.07c-.05-.05-.07-.11-.07-.18s.02-.13.07-.18ZM8.2,38.5s.11-.07.18-.07.13.02.18.07c.05.05.07.11.07.18s-.02.13-.07.18c-.05.05-.11.07-.18.07s-.13-.02-.18-.07c-.05-.05-.07-.11-.07-.18s.02-.13.07-.18ZM8.2,39.84s.11-.07.18-.07.13.02.18.07c.05.05.07.11.07.18s-.02.13-.07.18c-.05.05-.11.07-.18.07s-.13-.02-.18-.07c-.05-.05-.07-.11-.07-.18s.02-.13.07-.18Z"/>
      <rect class="cls-1" x="115.09" y="41.43" width="17.93" height="9.99"/>
      <rect class="cls-1" x="137.35" y="94.17" width="5.88" height="9.92"/>
      <rect class="cls-1" x="111.1" y="19.11" width="25.95" height="10.32"/>
      <path class="cls-1" d="M111.1,93.87h25.95V29.73h-25.95v64.14ZM112.25,38.6h23.47v.15h.15v15.52h-23.62v-15.67Z"/>
      <path class="cls-1" d="M37.66,75.85h-.57v.53h.37c.28,0,.41.14.41.41v3.87c0,.28-.14.42-.41.42h-.37v.53h.57c.47,0,.7-.23.7-.7v-4.35c0-.47-.23-.7-.7-.7Z"/>
      <path class="cls-1" d="M8.1,97.43h-3.91l.18-24.89H.53v-.3h3.83l.3-40.74h4.07v-7.93H.74l-.44,81.87h7.8v-8ZM7.87,25.04s.11-.07.18-.07.13.02.18.07c.05.05.07.11.07.18s-.02.13-.07.18c-.05.05-.11.07-.18.07s-.13-.02-.18-.07c-.05-.05-.07-.11-.07-.18s.02-.13.07-.18ZM7.87,30.09s.11-.07.18-.07.13.02.18.07c.05.05.07.11.07.18s-.02.13-.07.18c-.05.05-.11.07-.18.07s-.13-.02-.18-.07c-.05-.05-.07-.11-.07-.18s.02-.13.07-.18ZM3.5,40.18s.11-.07.18-.07.13.02.18.07c.05.05.07.11.07.18s-.02.13-.07.18c-.05.05-.11.07-.18.07s-.13-.02-.18-.07c-.05-.05-.07-.11-.07-.18s.02-.13.07-.18ZM3.5,55.32s.11-.07.18-.07.13.02.18.07c.05.05.07.11.07.18s-.02.13-.07.18c-.05.05-.11.07-.18.07s-.13-.02-.18-.07c-.05-.05-.07-.11-.07-.18s.02-.13.07-.18ZM3.5,70.8s.11-.07.18-.07.13.02.18.07c.05.05.07.11.07.18s-.02.13-.07.18c-.05.05-.11.07-.18.07s-.13-.02-.18-.07c-.05-.05-.07-.11-.07-.18s.02-.13.07-.18ZM3.86,89.32s-.11.07-.18.07-.13-.02-.18-.07c-.05-.05-.07-.11-.07-.18s.02-.13.07-.18c.05-.05.11-.07.18-.07s.13.02.18.07c.05.05.07.11.07.18s-.02.13-.07.18ZM3.86,74.18s-.11.07-.18.07-.13-.02-.18-.07-.07-.11-.07-.18.02-.13.07-.18.11-.07.18-.07.13.02.18.07.07.11.07.18-.02.13-.07.18ZM7.55,104.47s-.11.07-.18.07-.13-.02-.18-.07c-.05-.05-.07-.11-.07-.18s.02-.13.07-.18c.05-.05.11-.07.18-.07s.13.02.18.07.07.11.07.18-.02.13-.07.18ZM7.55,99.08s-.11.07-.18.07-.13-.02-.18-.07-.07-.11-.07-.18.02-.13.07-.18c.05-.05.11-.07.18-.07s.13.02.18.07c.05.05.07.11.07.18s-.02.13-.07.18Z"/>
      <rect class="cls-1" x="104.92" y="29.73" width="5.88" height="64.14"/>
      <rect class="cls-1" x="104.92" y="19.11" width="5.88" height="10.32"/>
      <rect class="cls-1" x="111.1" y="94.17" width="25.95" height="9.92"/>
      <polygon class="cls-1" points="4.49 97.12 8.4 97.12 8.4 105.42 33.42 105.42 33.52 72.53 4.67 72.53 4.49 97.12"/>
      <path class="cls-1" d="M7.63,106.91l-.05.05-.11.11c-.06.06-.1.14-.1.23v.13h2.66v-.15c0-.09-.03-.17-.1-.23l-.17-.17v.1h-2.14v-.08Z"/>
      <polygon class="cls-1" points="9.26 105.72 8.17 105.72 8.17 106.36 7.85 106.68 9.56 106.68 9.26 106.38 9.26 105.72"/>
      <path class="cls-1" d="M23.34,22.81c0-.31-.15-.46-.46-.46h-4.87c-.31,0-.46.15-.46.46v.44h5.79v-.44Z"/>
      <rect class="cls-1" x="245.42" y="19.11" width="6.67" height="10.31"/>
      <rect class="cls-1" x="252.4" y="19.11" width="63.55" height="10.31"/>
      <rect class="cls-1" x="316.25" y="19.11" width="6.76" height="10.31"/>
      <path class="cls-1" d="M248.82,33.33l-3.4-3.39v39.99l3.4-3.38v-33.22ZM246.39,66.78s-.11.07-.18.07-.13-.02-.18-.07c-.05-.05-.07-.11-.07-.18s.02-.13.07-.18c.05-.05.11-.07.18-.07s.13.02.18.07c.05.05.07.11.07.18s-.02.13-.07.18ZM246.39,58.37s-.11.07-.18.07-.13-.02-.18-.07c-.05-.05-.07-.11-.07-.18s.02-.13.07-.18.11-.07.18-.07.13.02.18.07c.05.05.07.11.07.18s-.02.13-.07.18ZM246.39,50.29s-.11.07-.18.07-.13-.02-.18-.07c-.05-.05-.07-.11-.07-.18s.02-.13.07-.18.11-.07.18-.07.13.02.18.07c.05.05.07.11.07.18s-.02.13-.07.18ZM246.39,33.81s-.11.07-.18.07-.13-.02-.18-.07c-.05-.05-.07-.11-.07-.18s.02-.13.07-.18c.05-.05.11-.07.18-.07s.13.02.18.07c.05.05.07.11.07.18s-.02.13-.07.18ZM248.07,66.78s-.11.07-.18.07-.13-.02-.18-.07c-.05-.05-.07-.11-.07-.18s.02-.13.07-.18c.05-.05.11-.07.18-.07s.13.02.18.07c.05.05.07.11.07.18s-.02.13-.07.18ZM248.07,58.37s-.11.07-.18.07-.13-.02-.18-.07c-.05-.05-.07-.11-.07-.18s.02-.13.07-.18.11-.07.18-.07.13.02.18.07c.05.05.07.11.07.18s-.02.13-.07.18ZM248.07,50.29s-.11.07-.18.07-.13-.02-.18-.07-.07-.11-.07-.18.02-.13.07-.18.11-.07.18-.07.13.02.18.07c.05.05.07.11.07.18s-.02.13-.07.18ZM248.07,33.81s-.11.07-.18.07-.13-.02-.18-.07c-.05-.05-.07-.11-.07-.18s.02-.13.07-.18c.05-.05.11-.07.18-.07s.13.02.18.07c.05.05.07.11.07.18s-.02.13-.07.18Z"/>
      <rect class="cls-1" x="240.35" y="104.39" width=".95" height=".78"/>
      <polygon class="cls-1" points="323.75 13.07 324.21 13.07 324.21 10.14 322.27 10.14 322.27 13.07 322.57 13.07 323.75 13.07"/>
      <rect class="cls-1" x="322.27" y="1.05" width="1.93" height="2.94"/>
      <polygon class="cls-1" points="320.82 105.17 321.64 105.17 321.77 105.17 321.77 104.35 320.82 104.35 320.82 105.17"/>
      <rect class="cls-1" x="322.87" y="13.38" width=".73" height="5.43"/>
      <rect class="cls-1" x="322.27" y="7.21" width="1.93" height="2.62"/>
      <rect class="cls-1" x="249.12" y="33.42" width="70.14" height="33.04"/>
      <path class="cls-1" d="M249.04,33.12h70.32l3.37-3.39h-77.1l3.4,3.39ZM249.25,32.46s-.11.07-.18.07-.13-.02-.18-.07c-.05-.05-.07-.11-.07-.18s.02-.13.07-.18c.05-.05.11-.07.18-.07.07,0,.13.02.18.07s.07.11.07.18-.02.13-.07.18ZM318.43,30.42s.11-.07.18-.07.13.02.18.07c.05.05.07.11.07.18s-.02.13-.07.18c-.05.05-.11.07-.18.07-.07,0-.13-.02-.18-.07-.05-.05-.07-.11-.07-.18s.02-.13.07-.18ZM318.43,32.1s.11-.07.18-.07.13.02.18.07c.05.05.07.11.07.18s-.02.13-.07.18c-.05.05-.11.07-.18.07s-.13-.02-.18-.07c-.05-.05-.07-.11-.07-.18s.02-.13.07-.18ZM294.91,30.42s.11-.07.18-.07c.07,0,.13.02.18.07.05.05.07.11.07.18s-.02.13-.07.18c-.05.05-.11.07-.18.07-.07,0-.13-.02-.18-.07-.05-.05-.07-.11-.07-.18s.02-.13.07-.18ZM294.91,32.1s.11-.07.18-.07c.07,0,.13.02.18.07s.07.11.07.18-.02.13-.07.18c-.05.05-.11.07-.18.07s-.13-.02-.18-.07c-.05-.05-.07-.11-.07-.18s.02-.13.07-.18ZM271.73,30.42s.11-.07.18-.07.13.02.18.07c.05.05.07.11.07.18s-.02.13-.07.18-.11.07-.18.07-.13-.02-.18-.07-.07-.11-.07-.18.02-.13.07-.18ZM271.73,32.1s.11-.07.18-.07.13.02.18.07c.05.05.07.11.07.18s-.02.13-.07.18c-.05.05-.11.07-.18.07s-.13-.02-.18-.07-.07-.11-.07-.18.02-.13.07-.18ZM248.89,30.42s.11-.07.18-.07c.07,0,.13.02.18.07s.07.11.07.18-.02.13-.07.18-.11.07-.18.07c-.07,0-.13-.02-.18-.07-.05-.05-.07-.11-.07-.18s.02-.13.07-.18Z"/>
      <rect class="cls-1" x="241.6" y="104.39" width=".95" height=".78"/>
      <rect class="cls-1" x="322.27" y="4.29" width="1.93" height="2.62"/>
      <rect class="cls-1" x="323.19" y="105.47" width=".95" height="2.37"/>
      <path class="cls-1" d="M249.04,66.76l-3.41,3.39h77.11l-3.38-3.39h-70.31ZM249.25,69.3s-.11.07-.18.07c-.07,0-.13-.02-.18-.07-.05-.05-.07-.11-.07-.18s.02-.13.07-.18c.05-.05.11-.07.18-.07.07,0,.13.02.18.07.05.05.07.11.07.18s-.02.13-.07.18ZM249.25,67.62s-.11.07-.18.07-.13-.02-.18-.07c-.05-.05-.07-.11-.07-.18s.02-.13.07-.18.11-.07.18-.07.13.02.18.07c.05.05.07.11.07.18s-.02.13-.07.18ZM272.26,69.3s-.11.07-.18.07-.13-.02-.18-.07c-.05-.05-.07-.11-.07-.18s.02-.13.07-.18c.05-.05.11-.07.18-.07s.13.02.18.07c.05.05.07.11.07.18s-.02.13-.07.18ZM272.26,67.62s-.11.07-.18.07-.13-.02-.18-.07c-.05-.05-.07-.11-.07-.18,0-.07.02-.13.07-.18.05-.05.11-.07.18-.07s.13.02.18.07.07.11.07.18-.02.13-.07.18ZM295.43,69.3s-.11.07-.18.07-.13-.02-.18-.07c-.05-.05-.07-.11-.07-.18s.02-.13.07-.18c.05-.05.11-.07.18-.07.07,0,.13.02.18.07.05.05.07.11.07.18s-.02.13-.07.18ZM295.43,67.62s-.11.07-.18.07-.13-.02-.18-.07c-.05-.05-.07-.11-.07-.18s.02-.13.07-.18c.05-.05.11-.07.18-.07s.13.02.18.07c.05.05.07.11.07.18s-.02.13-.07.18ZM318.95,69.3s-.11.07-.18.07-.13-.02-.18-.07c-.05-.05-.07-.11-.07-.18s.02-.13.07-.18c.05-.05.11-.07.18-.07s.13.02.18.07c.05.05.07.11.07.18s-.02.13-.07.18ZM318.95,67.62s-.11.07-.18.07-.13-.02-.18-.07c-.05-.05-.07-.11-.07-.18s.02-.13.07-.18c.05-.05.11-.07.18-.07s.13.02.18.07c.05.05.07.11.07.18s-.02.13-.07.18Z"/>
      <rect class="cls-1" x="316.15" y="104.35" width=".95" height=".82"/>
      <rect class="cls-1" x="314.9" y="104.35" width=".95" height=".82"/>
      <polygon class="cls-1" points="240.35 104.05 242.71 104.05 242.71 104.09 245.12 104.09 245.12 70.45 245.12 70.3 245.12 29.57 245.12 29.42 245.12 19.11 240.35 19.11 240.35 104.05"/>
      <rect class="cls-1" x="319.57" y="104.35" width=".95" height=".82"/>
      <polygon class="cls-1" points="321.94 105.47 321.94 107.84 322.89 107.84 322.89 105.47 322.07 105.47 321.94 105.47"/>
      <path class="cls-1" d="M280.69,74.16c.38,0,.57-.19.57-.57s-.19-.57-.57-.57-.57.19-.57.57.19.57.57.57ZM280.54,73.07h.3v1.01h-.3v-1.01Z"/>
      <rect class="cls-1" x="245.42" y="94.17" width="6.97" height="9.92"/>
      <path class="cls-1" d="M348.25,53.76h-19.81v1.89h19.81c.63,0,.94-.31.94-.94s-.31-.94-.94-.94Z"/>
      <path class="cls-1" d="M245.42,93.87h7.27v10.22h31.35v-33.64h-38.62v23.42ZM279.69,72.58c.28-.28.61-.42,1.01-.42s.73.14,1,.42c.28.28.42.61.42,1.01s-.14.73-.42,1.01c-.28.28-.61.42-1,.42s-.73-.14-1.01-.42c-.28-.28-.42-.61-.42-1.01s.14-.73.42-1.01Z"/>
      <path class="cls-1" d="M280.69,74.71c.75,0,1.12-.37,1.12-1.12s-.37-1.12-1.12-1.12-1.12.37-1.12,1.12.37,1.12,1.12,1.12ZM280.69,72.71c.58,0,.87.29.87.87s-.29.87-.87.87-.87-.29-.87-.87.29-.87.87-.87Z"/>
      <rect class="cls-1" x="322.27" y=".3" width="1.93" height=".45"/>
      <path class="cls-1" d="M287.93,73.02c-.38,0-.57.19-.57.57s.19.57.57.57.57-.19.57-.57-.19-.57-.57-.57ZM288.09,74.08h-.3v-1.01h.3v1.01Z"/>
      <path class="cls-1" d="M287.93,72.46c-.75,0-1.12.37-1.12,1.12s.37,1.12,1.12,1.12,1.12-.37,1.12-1.12-.37-1.12-1.12-1.12ZM287.93,74.46c-.58,0-.87-.29-.87-.87s.29-.87.87-.87.87.29.87.87-.29.87-.87.87Z"/>
      <rect class="cls-1" x="245.06" y="105.47" width=".95" height="2.37"/>
      <path class="cls-2" d="M77.7,63.34h.15s.52-17.84.52-17.84h-10.28l-.52,17.99h10.14v-.15ZM67.88,63.19l.51-17.39h9.68l-.51,17.39h-9.68Z"/>
      <path class="cls-2" d="M64.87,66.43h8.61v6.36-.06s-4.96,1.08-4.96,1.08h0s-.06.02-.08.04c-.03.03-.04.07-.04.11v22.33l-.71.34h-.83v-30.19h-.3v5.8h-3.67l-.3-40.74h-4.07v-8.08h-.3v8.38h4.07l.04,5.19H4.93l.04-5.19h4.07v-8.23h21.56v-.3h-6.96v-.44c0-.51-.25-.76-.76-.76h-4.87c-.51,0-.76.25-.76.76v.44H.44l-.44,82.47h7.87v.51l-.5.5-.11.11c-.12.12-.18.27-.18.44v.43h3.26v-.45c0-.17-.06-.32-.18-.44l-.59-.59v-.53h51.04v.51l-.5.5-.11.11c-.12.12-.18.27-.18.44v.43h3.26v-.45c0-.17-.06-.32-.18-.44l-.59-.59v-.53h4.56v-.06l7.89-4.27v-34.97h5.57v-.15h.15s.46-23.24.46-23.24l-15.25-.14-.81,23.54ZM17.56,22.81c0-.31.15-.46.46-.46h4.87c.31,0,.46.15.46.46v.44h-5.79v-.44ZM62.58,72.23H4.67l.02-3.33h57.78v-.3H4.7l.2-27.69h57.46l.23,31.32ZM62.33,37.28l.02,3.33H4.9l.02-3.33h57.4ZM.3,105.42L.74,23.56h8v7.93h-4.07l-.3,40.74H.53v.3h3.83l-.18,24.89h3.91v8H.3ZM9.76,106.88l.17.17c.06.06.1.14.1.23v.15h-2.66v-.13c0-.09.03-.17.1-.23l.11-.11.05-.05v.08h2.14v-.1ZM9.56,106.68h-1.71l.32-.32v-.64h1.09v.66l.3.3ZM33.42,105.42H8.4v-8.3h-3.91l.18-24.59h28.85l-.1,32.89ZM58.22,105.42h-24.49l.1-32.89h28.76l.18,24.59h-4.55v8.3ZM62.5,106.88l.17.17c.06.06.1.14.1.23v.15h-2.66v-.13c0-.09.03-.17.1-.23l.11-.11.05-.05v.08h2.14v-.1ZM62.3,106.68h-1.71l.32-.32v-.64h1.09v.66l.3.3ZM66.56,105.42h-8.04v-8h4.55l-.18-24.89h3.67v32.89ZM68.7,74.08l4.78-1.04v20.84l-4.78,2.26v-22.06ZM73.55,101.7l-6.69,3.62v-8.4h.9l5.79-2.74v7.52ZM74.44,101.21l-.59.32v-7.83l-.07.03v-27.3h.66v34.79ZM80.62,43.33l-.45,22.79h-14.99l.79-22.93,14.65.14Z"/>
      <path class="cls-2" d="M67.87,23.79v7.89h-.88v.3h1.18v-8.14l5.49,1.35v7.51l.96.28v8.37l-7.63-.11v.3s7.63.11,7.63.11v1.18h.3v-17.65l-4.17-1.02v-8.31h.62V3.6h-.15v-.15h-2.36v12.42h.57v7.99l-2.4-.59-.07.29.99.24h-.07ZM73.96,25.27l.66.16v7.25l-.66-.19v-7.21ZM70.44,24.1l-.72-.18v-8.06h.72v8.24ZM69.15,3.75h1.91v3.15h-1.91v-3.15ZM69.15,7.2h1.91v2.46h-1.91v-2.46ZM69.15,9.96h1.91v2.42h-1.91v-2.42ZM69.15,15.56v-2.88h1.91v2.88h-1.91Z"/>
      <path class="cls-2" d="M48.22,22.81c0-.31.15-.46.46-.46h4.87c.31,0,.46.15.46.46v.53h.3v-.53c0-.51-.25-.76-.76-.76h-4.87c-.51,0-.76.25-.76.76v.53h.3v-.53Z"/>
      <path class="cls-2" d="M37.66,75.55h-.72v.15h-.15v.98h.67c.08,0,.11.04.11.11v3.87c0,.08-.04.11-.11.11h-.67v1.13h.87c.67,0,1-.33,1-1v-4.35c0-.67-.33-1-1-1ZM38.36,80.9c0,.47-.23.7-.7.7h-.57v-.53h.37c.28,0,.41-.14.41-.42v-3.87c0-.28-.14-.41-.41-.41h-.37v-.53h.57c.47,0,.7.23.7.7v4.35Z"/>
      <path class="cls-2" d="M148.35,104.09h-4.82V19.11h4.98v-.3h-49.18v85.58h6.96v.93h-.14v-.15h-2.65v2.97h2.8v-2.67h2.79v-1.08h39.57v-34.69h-.3v34.39ZM104.62,104.09h-4.99V19.11h4.99v84.98ZM104.74,107.84h-.95v-2.37h.95v2.37ZM105.99,107.84h-.95v-2.37h.95v2.37ZM107.54,105.17h-.95v-.78h.95v.78ZM108.79,105.17h-.95v-.78h.95v.78ZM110.8,104.09h-5.88v-9.92h5.88v9.92ZM110.8,93.87h-5.88V29.73h5.88v64.14ZM110.8,29.43h-5.88v-10.32h5.88v10.32ZM137.05,104.09h-25.95v-9.92h25.95v9.92ZM137.05,93.87h-25.95V29.73h25.95v64.14ZM137.05,29.43h-25.95v-10.32h25.95v10.32ZM143.23,104.09h-5.88v-9.92h5.88v9.92ZM143.23,93.87h-5.88V29.73h5.88v64.14ZM143.23,29.43h-5.88v-10.32h5.88v10.32Z"/>
      <path class="cls-2" d="M135.87,38.75h-.15v-.15h-23.47v15.67h23.62v-15.52ZM135.56,53.97h-23.01v-15.07h23.01v15.07Z"/>
      <path class="cls-2" d="M133.32,41.28h-.15v-.15h-18.38v10.6h18.53v-10.45ZM133.02,51.43h-17.93v-9.99h17.93v9.99Z"/>
      <path class="cls-2" d="M145.48,105.17h-2.65v2.97h2.8v-2.82h-.15v-.15ZM144.08,107.84h-.95v-2.37h.95v2.37ZM145.33,107.84h-.95v-2.37h.95v2.37Z"/>
      <path class="cls-2" d="M156.5,105.17h-2.65v2.97h2.8v-2.82h-.15v-.15ZM155.1,107.84h-.95v-2.37h.95v2.37ZM156.35,107.84h-.95v-2.37h.95v2.37Z"/>
      <path class="cls-2" d="M234.4,105.17h-2.35v-.97h-.15v-.15h-2.65v1.42h2.5v2.67h2.8v-2.82h-.15v-.15ZM230.5,105.17h-.95v-.82h.95v.82ZM231.75,105.17h-.95v-.82h.95v.82ZM233,107.84h-.95v-2.37h.95v2.37ZM234.25,107.84h-.95v-2.37h.95v2.37Z"/>
      <path class="cls-2" d="M246.16,105.17h-2.65v2.97h2.81v-2.82h-.15v-.15ZM244.76,107.84h-.95v-2.37h.95v2.37ZM246.01,107.84h-.95v-2.37h.95v2.37Z"/>
      <path class="cls-2" d="M324.29,105.17h-2.22v-.97h-.15v-.15h-2.65v1.42h2.37v2.67h2.8v-2.82h-.15v-.15ZM320.52,105.17h-.95v-.82h.95v.82ZM321.77,105.17h-.95v-.82h.95v.82ZM322.89,107.84h-.95v-2.37h.95v2.37ZM324.14,107.84h-.95v-2.37h.95v2.37Z"/>
      <path class="cls-2" d="M317.25,104.05h-.99v-9.87h6.76v10.07h.3v-55.3h-.3v21.07l-3.45-3.46v-8.26s.01.06.04.09c.05.05.11.07.18.07s.13-.02.18-.07c.05-.05.07-.11.07-.18s-.02-.13-.07-.18c-.05-.05-.11-.07-.18-.07s-.13.02-.18.07c-.02.02-.02.06-.04.09v-7.89s.01.06.04.09c.05.05.11.07.18.07s.13-.02.18-.07c.05-.05.07-.11.07-.18s-.02-.13-.07-.18c-.05-.05-.11-.07-.18-.07s-.13.02-.18.07c-.02.02-.02.06-.04.09v-16.3s.01.06.04.09c.05.05.11.07.18.07s.13-.02.18-.07c.05-.05.07-.11.07-.18s-.02-.13-.07-.18c-.05-.05-.11-.07-.18-.07s-.13.02-.18.07c-.02.02-.02.06-.04.09v-.2l3.59-3.61h.01s.04-.05.04-.05l-.04-.04v-.06h.15v-10.46h4.97v-.3h-4.38v-5.43h.6V.15h-.15v-.15h-2.39v13.38h.6v5.43h-82.52v86.66h2.8v-1.08h41.87v-.3h-.37v-33.64h38.67v23.42h-7.07v10.18h-1.36v1.42h2.8v-1.27h-.15v-.15ZM319.36,33.12h-70.32l-3.4-3.39h77.1l-3.37,3.39ZM319.26,33.42v33.04h-70.14v-33.04h70.14ZM323.6,18.81h-.73v-5.43h.73v5.43ZM322.27.3h1.93v.45h-1.93v-.45ZM322.27,1.05h1.93v2.94h-1.93V1.05ZM322.27,4.29h1.93v2.62h-1.93v-2.62ZM322.27,7.21h1.93v2.62h-1.93v-2.62ZM322.27,13.07v-2.94h1.93v2.94h-1.93ZM316.25,19.11h6.76v10.31h-6.76v-10.31ZM252.4,19.11h63.55v10.31h-63.55v-10.31ZM245.42,19.11h6.67v10.31h-6.67v-10.31ZM245.42,29.94l3.4,3.39v33.22l-3.4,3.38V29.94ZM241.3,105.17h-.95v-.78h.95v.78ZM242.55,105.17h-.95v-.78h.95v.78ZM245.12,29.42v74.67h-2.42v-.04h-2.35V19.11h4.77v10.31ZM252.39,104.09h-6.97v-9.92h6.97v9.92ZM284.05,104.09h-31.35v-10.22h-7.27v-23.42h38.62v33.64ZM245.63,70.15l3.41-3.39h70.31l3.38,3.39h-77.11ZM315.84,105.17h-.95v-.82h.95v.82ZM317.1,105.17h-.95v-.82h.95v.82Z"/>
      <path class="cls-2" d="M190.67,75.01c.39,0,.73-.14,1.01-.42.28-.28.42-.61.42-1.01s-.14-.73-.42-1.01c-.28-.28-.61-.42-1.01-.42s-.73.14-1,.42c-.28.28-.42.61-.42,1.01s.14.73.42,1.01c.28.28.61.42,1,.42ZM190.67,72.46c.75,0,1.12.37,1.12,1.12s-.37,1.12-1.12,1.12-1.12-.37-1.12-1.12.37-1.12,1.12-1.12Z"/>
      <path class="cls-2" d="M190.67,74.46c.58,0,.87-.29.87-.87s-.29-.87-.87-.87-.87.29-.87.87.29.87.87.87ZM190.67,73.02c.38,0,.57.19.57.57s-.19.57-.57.57-.57-.19-.57-.57.19-.57.57-.57Z"/>
      <rect class="cls-2" x="190.52" y="73.07" width=".3" height="1.01"/>
      <path class="cls-2" d="M197.91,72.16c-.39,0-.73.14-1,.42s-.42.61-.42,1.01.14.73.42,1.01c.28.28.61.42,1,.42s.73-.14,1.01-.42c.28-.28.42-.61.42-1.01s-.14-.73-.42-1.01c-.28-.28-.61-.42-1.01-.42ZM197.91,74.71c-.75,0-1.12-.37-1.12-1.12s.37-1.12,1.12-1.12,1.12.37,1.12,1.12-.37,1.12-1.12,1.12Z"/>
      <path class="cls-2" d="M197.91,72.71c-.58,0-.87.29-.87.87s.29.87.87.87.87-.29.87-.87-.29-.87-.87-.87ZM197.91,74.16c-.38,0-.57-.19-.57-.57s.19-.57.57-.57.57.19.57.57-.19.57-.57.57Z"/>
      <rect class="cls-2" x="197.76" y="73.07" width=".3" height="1.01"/>
      <path class="cls-2" d="M233.89,13.38h.6V.15h-.15v-.15h-2.39v13.38h.6v5.43h-82.52v85.58h44.67v-.3h-.37v-33.64h38.67v23.42h-7.07v10.37h.3v-10.07h6.77v10.07h.3v-33.94h0v-21.37h-.3v21.07l-3.45-3.46v-33.21l3.59-3.61h0s.04-.05.04-.05l-.04-.04v-.06h.15v-10.46h4.97v-.3h-4.38v-5.43ZM232.25.3h1.94v.45h-1.94v-.45ZM232.25,1.05h1.94v2.94h-1.94V1.05ZM232.25,4.29h1.94v2.62h-1.94v-2.62ZM232.25,7.21h1.94v2.62h-1.94v-2.62ZM162.38,19.11h63.55v10.31h-63.55v-10.31ZM155.4,19.11h6.67v10.31h-6.67v-10.31ZM155.4,29.94l3.4,3.39v33.22l-3.4,3.38V29.94ZM155.1,29.42v74.67h-4.77V19.11h4.77v10.31ZM162.37,104.09h-6.97v-9.92h6.97v9.92ZM194.02,104.09h-31.35v-10.22h-7.27v-23.42h38.62v33.64ZM232.72,70.15h-77.11l3.41-3.39h70.31l3.38,3.39ZM159.1,66.45v-33.04h70.14v33.04h-70.14ZM229.34,33.12h-70.33l-3.4-3.39h77.1l-3.37,3.39ZM233,29.42h-6.77v-10.31h6.77v10.31ZM233.58,18.81h-.73v-5.43h.73v5.43ZM232.55,13.07h-.3v-2.94h1.94v2.94h-1.64Z"/>
      <path class="cls-2" d="M159.39,32.99h0c.08,0,.15-.03.21-.09.06-.06.09-.13.09-.21s-.03-.15-.09-.21c-.06-.06-.13-.09-.21-.09h0c-.08,0-.15.03-.21.09-.06.06-.09.13-.09.21,0,.08.03.15.09.21.06.06.13.09.21.09Z"/>
      <path class="cls-2" d="M159.39,31.3h0c.08,0,.15-.03.21-.09.06-.06.09-.13.09-.21s-.03-.15-.09-.21c-.06-.06-.13-.09-.21-.09h0c-.08,0-.15.03-.21.09-.06.06-.09.13-.09.21,0,.08.03.15.09.21.06.06.13.09.21.09Z"/>
      <path class="cls-2" d="M182.92,32.99h.07c.08,0,.15-.03.21-.09.06-.06.09-.13.09-.21s-.03-.15-.09-.21c-.06-.06-.13-.09-.21-.09h-.07c-.08,0-.15.03-.21.09-.06.06-.09.13-.09.21s.03.15.09.21c.06.06.13.09.21.09Z"/>
      <path class="cls-2" d="M182.92,31.3h.07c.08,0,.15-.03.21-.09.06-.06.09-.13.09-.21s-.03-.15-.09-.21c-.06-.06-.13-.09-.21-.09h-.07c-.08,0-.15.03-.21.09-.06.06-.09.13-.09.21s.03.15.09.21c.06.06.13.09.21.09Z"/>
      <path class="cls-2" d="M206.44,32.99h.08c.08,0,.15-.03.21-.09.06-.06.09-.13.09-.21,0-.08-.03-.15-.09-.21-.06-.06-.13-.09-.21-.09h-.08c-.08,0-.15.03-.21.09-.06.06-.09.13-.09.21s.03.15.09.21c.06.06.13.09.21.09Z"/>
      <path class="cls-2" d="M206.44,31.3h.08c.08,0,.15-.03.21-.09.06-.06.09-.13.09-.21,0-.08-.03-.15-.09-.21-.06-.06-.13-.09-.21-.09h-.08c-.08,0-.15.03-.21.09-.06.06-.09.13-.09.21s.03.15.09.21c.06.06.13.09.21.09Z"/>
      <path class="cls-2" d="M229.29,32.99h0c.08,0,.15-.03.21-.09.06-.06.09-.13.09-.21,0-.08-.03-.15-.09-.21-.06-.06-.13-.09-.21-.09h0c-.08,0-.15.03-.21.09-.06.06-.09.13-.09.21s.03.15.09.21.13.09.21.09Z"/>
      <path class="cls-2" d="M229.29,31.3h0c.08,0,.15-.03.21-.09.06-.06.09-.13.09-.21,0-.08-.03-.15-.09-.21-.06-.06-.13-.09-.21-.09h0c-.08,0-.15.03-.21.09-.06.06-.09.13-.09.21s.03.15.09.21c.06.06.13.09.21.09Z"/>
      <path class="cls-2" d="M229.29,68.6h0c-.08,0-.15.03-.21.09-.06.06-.09.13-.09.21s.03.15.09.21c.06.06.13.09.21.09h0c.08,0,.15-.03.21-.09s.09-.13.09-.21c0-.08-.03-.15-.09-.21-.06-.06-.13-.09-.21-.09Z"/>
      <path class="cls-2" d="M229.29,66.91c-.08,0-.15.03-.21.09-.06.06-.09.13-.09.21s.03.15.09.21c.06.06.13.09.21.09h0c.08,0,.15-.03.21-.09.06-.06.09-.13.09-.21,0-.08-.03-.15-.09-.21s-.13-.09-.21-.09h0Z"/>
      <path class="cls-2" d="M206.28,68.6h0c-.08,0-.15.03-.21.09-.06.06-.09.13-.09.21s.03.15.09.21.13.09.21.09h0c.08,0,.15-.03.21-.09s.09-.13.09-.21-.03-.15-.09-.21c-.06-.06-.13-.09-.21-.09Z"/>
      <path class="cls-2" d="M206.28,66.91h0c-.08,0-.15.03-.21.09s-.09.13-.09.21.03.15.09.21c.06.06.13.09.21.09h0c.08,0,.15-.03.21-.09.06-.06.09-.13.09-.21s-.03-.15-.09-.21-.13-.09-.21-.09Z"/>
      <path class="cls-2" d="M182.75,68.6h0c-.08,0-.15.03-.21.09-.06.06-.09.13-.09.21s.03.15.09.21c.06.06.13.09.21.09h0c.08,0,.15-.03.21-.09.06-.06.09-.13.09-.21s-.03-.15-.09-.21c-.06-.06-.13-.09-.21-.09Z"/>
      <path class="cls-2" d="M182.75,66.91h0c-.08,0-.15.03-.21.09-.06.06-.09.13-.09.21s.03.15.09.21c.06.06.13.09.21.09h0c.08,0,.15-.03.21-.09.06-.06.09-.13.09-.21s-.03-.15-.09-.21c-.06-.06-.13-.09-.21-.09Z"/>
      <path class="cls-2" d="M159.56,68.6h0c-.08,0-.15.03-.21.09-.06.06-.09.13-.09.21s.03.15.09.21.13.09.21.09h0c.08,0,.15-.03.21-.09s.09-.13.09-.21-.03-.15-.09-.21c-.06-.06-.13-.09-.21-.09Z"/>
      <path class="cls-2" d="M159.56,66.91h0c-.08,0-.15.03-.21.09s-.09.13-.09.21.03.15.09.21c.06.06.13.09.21.09h0c.08,0,.15-.03.21-.09.06-.06.09-.13.09-.21s-.03-.15-.09-.21-.13-.09-.21-.09Z"/>
      <path class="cls-2" d="M280.69,75.01c.39,0,.73-.14,1-.42.28-.28.42-.61.42-1.01s-.14-.73-.42-1.01c-.28-.28-.61-.42-1-.42s-.73.14-1.01.42c-.28.28-.42.61-.42,1.01s.14.73.42,1.01c.28.28.61.42,1.01.42ZM280.69,72.46c.75,0,1.12.37,1.12,1.12s-.37,1.12-1.12,1.12-1.12-.37-1.12-1.12.37-1.12,1.12-1.12Z"/>
      <path class="cls-2" d="M280.69,74.46c.58,0,.87-.29.87-.87s-.29-.87-.87-.87-.87.29-.87.87.29.87.87.87ZM280.69,73.02c.38,0,.57.19.57.57s-.19.57-.57.57-.57-.19-.57-.57.19-.57.57-.57Z"/>
      <rect class="cls-2" x="280.54" y="73.07" width=".3" height="1.01"/>
      <path class="cls-2" d="M287.93,72.16c-.39,0-.73.14-1.01.42-.28.28-.42.61-.42,1.01s.14.73.42,1.01c.28.28.61.42,1.01.42s.73-.14,1-.42c.28-.28.42-.61.42-1.01s-.14-.73-.42-1.01-.61-.42-1-.42ZM287.93,74.71c-.75,0-1.12-.37-1.12-1.12s.37-1.12,1.12-1.12,1.12.37,1.12,1.12-.37,1.12-1.12,1.12Z"/>
      <path class="cls-2" d="M287.93,72.71c-.58,0-.87.29-.87.87s.29.87.87.87.87-.29.87-.87-.29-.87-.87-.87ZM287.93,74.16c-.38,0-.57-.19-.57-.57s.19-.57.57-.57.57.19.57.57-.19.57-.57.57Z"/>
      <rect class="cls-2" x="287.78" y="73.07" width=".3" height="1.01"/>
      <path class="cls-2" d="M349.13,53.83c-.24-.24-.54-.37-.88-.37h-19.96v.15h-.15v2.34h2.46v.68l-2.43,3.85.26.16,2.48-3.92v-.76h17.36c.34,0,.64-.12.88-.37.24-.24.36-.54.36-.88s-.12-.64-.36-.88ZM348.25,55.65h-19.81v-1.89h19.81c.63,0,.94.31.94.94s-.31.94-.94.94Z"/>
      <path class="cls-2" d="M8.38,38.93c.07,0,.13-.02.18-.07.05-.05.07-.11.07-.18s-.02-.13-.07-.18c-.05-.05-.11-.07-.18-.07s-.13.02-.18.07c-.05.05-.07.11-.07.18s.02.13.07.18c.05.05.11.07.18.07Z"/>
      <path class="cls-2" d="M8.05,25.47c.07,0,.13-.02.18-.07.05-.05.07-.11.07-.18s-.02-.13-.07-.18c-.05-.05-.11-.07-.18-.07s-.13.02-.18.07c-.05.05-.07.11-.07.18s.02.13.07.18c.05.05.11.07.18.07Z"/>
      <path class="cls-2" d="M59.44,25.47c.07,0,.13-.02.18-.07.05-.05.07-.11.07-.18s-.02-.13-.07-.18c-.05-.05-.11-.07-.18-.07s-.13.02-.18.07c-.05.05-.07.11-.07.18,0,.07.02.13.07.18.05.05.11.07.18.07Z"/>
      <path class="cls-2" d="M8.05,30.52c.07,0,.13-.02.18-.07.05-.05.07-.11.07-.18s-.02-.13-.07-.18c-.05-.05-.11-.07-.18-.07s-.13.02-.18.07c-.05.05-.07.11-.07.18s.02.13.07.18c.05.05.11.07.18.07Z"/>
      <path class="cls-2" d="M59.44,30.52c.07,0,.13-.02.18-.07.05-.05.07-.11.07-.18s-.02-.13-.07-.18c-.05-.05-.11-.07-.18-.07s-.13.02-.18.07c-.05.05-.07.11-.07.18,0,.07.02.13.07.18.05.05.11.07.18.07Z"/>
      <path class="cls-2" d="M3.68,40.61c.07,0,.13-.02.18-.07.05-.05.07-.11.07-.18s-.02-.13-.07-.18c-.05-.05-.11-.07-.18-.07s-.13.02-.18.07c-.05.05-.07.11-.07.18s.02.13.07.18c.05.05.11.07.18.07Z"/>
      <path class="cls-2" d="M63.47,40.61c.07,0,.13-.02.18-.07s.07-.11.07-.18-.02-.13-.07-.18-.11-.07-.18-.07-.13.02-.18.07-.07.11-.07.18.02.13.07.18.11.07.18.07Z"/>
      <path class="cls-2" d="M68.51,44.65c.07,0,.13-.02.18-.07.05-.05.07-.11.07-.18s-.02-.13-.07-.18c-.05-.05-.11-.07-.18-.07s-.13.02-.18.07-.07.11-.07.18.02.13.07.18c.05.05.11.07.18.07Z"/>
      <path class="cls-2" d="M77.92,44.65c.07,0,.13-.02.18-.07.05-.05.07-.11.07-.18s-.02-.13-.07-.18c-.05-.05-.11-.07-.18-.07s-.13.02-.18.07-.07.11-.07.18.02.13.07.18c.05.05.11.07.18.07Z"/>
      <path class="cls-2" d="M79.26,50.03c.07,0,.13-.02.18-.07.05-.05.07-.11.07-.18s-.02-.13-.07-.18c-.05-.05-.11-.07-.18-.07s-.13.02-.18.07c-.05.05-.07.11-.07.18s.02.13.07.18c.05.05.11.07.18.07Z"/>
      <path class="cls-2" d="M78.93,59.45c.07,0,.13-.02.18-.07.05-.05.07-.11.07-.18s-.02-.13-.07-.18c-.05-.05-.11-.07-.18-.07s-.13.02-.18.07c-.05.05-.07.11-.07.18s.02.13.07.18c.05.05.11.07.18.07Z"/>
      <path class="cls-2" d="M77.58,64.67c-.07,0-.13.02-.18.07-.05.05-.07.11-.07.18s.02.13.07.18c.05.05.11.07.18.07s.13-.02.18-.07c.05-.05.07-.11.07-.18s-.02-.13-.07-.18c-.05-.05-.11-.07-.18-.07Z"/>
      <path class="cls-2" d="M67.84,64.67c-.07,0-.13.02-.18.07-.05.05-.07.11-.07.18s.02.13.07.18c.05.05.11.07.18.07s.13-.02.18-.07c.05-.05.07-.11.07-.18s-.02-.13-.07-.18c-.05-.05-.11-.07-.18-.07Z"/>
      <path class="cls-2" d="M66.5,59.45c.07,0,.13-.02.18-.07.05-.05.07-.11.07-.18s-.02-.13-.07-.18c-.05-.05-.11-.07-.18-.07s-.13.02-.18.07-.07.11-.07.18.02.13.07.18c.05.05.11.07.18.07Z"/>
      <path class="cls-2" d="M66.83,50.03c.07,0,.13-.02.18-.07.05-.05.07-.11.07-.18s-.02-.13-.07-.18c-.05-.05-.11-.07-.18-.07s-.13.02-.18.07c-.05.05-.07.11-.07.18s.02.13.07.18c.05.05.11.07.18.07Z"/>
      <path class="cls-2" d="M113.86,41.96c.07,0,.13-.02.18-.07.05-.05.07-.11.07-.18s-.02-.13-.07-.18c-.05-.05-.11-.07-.18-.07s-.13.02-.18.07c-.05.05-.07.11-.07.18s.02.13.07.18c.05.05.11.07.18.07Z"/>
      <path class="cls-2" d="M113.52,51.38c.07,0,.13-.02.18-.07s.07-.11.07-.18-.02-.13-.07-.18c-.05-.05-.11-.07-.18-.07s-.13.02-.18.07c-.05.05-.07.11-.07.18s.02.13.07.18c.05.05.11.07.18.07Z"/>
      <path class="cls-2" d="M118.9,52.56c-.07,0-.13.02-.18.07-.05.05-.07.11-.07.18,0,.07.02.13.07.18.05.05.11.07.18.07s.13-.02.18-.07c.05-.05.07-.11.07-.18s-.02-.13-.07-.18c-.05-.05-.11-.07-.18-.07Z"/>
      <path class="cls-2" d="M128.64,52.56c-.07,0-.13.02-.18.07s-.07.11-.07.18.02.13.07.18c.05.05.11.07.18.07s.13-.02.18-.07c.05-.05.07-.11.07-.18s-.02-.13-.07-.18-.11-.07-.18-.07Z"/>
      <path class="cls-2" d="M134.35,51.71c.07,0,.13-.02.18-.07.05-.05.07-.11.07-.18s-.02-.13-.07-.18c-.05-.05-.11-.07-.18-.07s-.13.02-.18.07c-.05.05-.07.11-.07.18s.02.13.07.18c.05.05.11.07.18.07Z"/>
      <path class="cls-2" d="M134.35,41.96c.07,0,.13-.02.18-.07.05-.05.07-.11.07-.18s-.02-.13-.07-.18c-.05-.05-.11-.07-.18-.07s-.13.02-.18.07c-.05.05-.07.11-.07.18s.02.13.07.18c.05.05.11.07.18.07Z"/>
      <path class="cls-2" d="M128.64,40.61c.07,0,.13-.02.18-.07.05-.05.07-.11.07-.18s-.02-.13-.07-.18c-.05-.05-.11-.07-.18-.07s-.13.02-.18.07c-.05.05-.07.11-.07.18s.02.13.07.18c.05.05.11.07.18.07Z"/>
      <path class="cls-2" d="M119.24,40.61c.07,0,.13-.02.18-.07.05-.05.07-.11.07-.18s-.02-.13-.07-.18c-.05-.05-.11-.07-.18-.07s-.13.02-.18.07c-.05.05-.07.11-.07.18s.02.13.07.18c.05.05.11.07.18.07Z"/>
      <path class="cls-2" d="M156.52,33.71c-.07,0-.13.02-.18.07-.05.05-.07.11-.07.18s.02.13.07.18c.05.05.11.07.18.07s.13-.02.18-.07c.05-.05.07-.11.07-.18s-.02-.13-.07-.18c-.05-.05-.11-.07-.18-.07Z"/>
      <path class="cls-2" d="M156.52,49.86c-.07,0-.13.02-.18.07-.05.05-.07.11-.07.18s.02.13.07.18c.05.05.11.07.18.07s.13-.02.18-.07c.05-.05.07-.11.07-.18s-.02-.13-.07-.18c-.05-.05-.11-.07-.18-.07Z"/>
      <path class="cls-2" d="M156.52,58.28c-.07,0-.13.02-.18.07-.05.05-.07.11-.07.18s.02.13.07.18c.05.05.11.07.18.07.07,0,.13-.02.18-.07.05-.05.07-.11.07-.18s-.02-.13-.07-.18c-.05-.05-.11-.07-.18-.07Z"/>
      <path class="cls-2" d="M156.52,66.35c-.07,0-.13.02-.18.07-.05.05-.07.11-.07.18s.02.13.07.18c.05.05.11.07.18.07s.13-.02.18-.07c.05-.05.07-.11.07-.18s-.02-.13-.07-.18c-.05-.05-.11-.07-.18-.07Z"/>
      <path class="cls-2" d="M230.43,66.35c-.07,0-.13.02-.18.07-.05.05-.07.11-.07.18s.02.13.07.18c.05.05.11.07.18.07s.13-.02.18-.07c.05-.05.07-.11.07-.18s-.02-.13-.07-.18c-.05-.05-.11-.07-.18-.07Z"/>
      <path class="cls-2" d="M230.6,58.01s-.11-.07-.18-.07-.13.02-.18.07c-.05.05-.07.11-.07.18s.02.13.07.18c.05.05.11.07.18.07s.13-.02.18-.07c.05-.05.07-.11.07-.18s-.02-.13-.07-.18Z"/>
      <path class="cls-2" d="M230.6,49.94s-.11-.07-.18-.07-.13.02-.18.07c-.05.05-.07.11-.07.18s.02.13.07.18c.05.05.11.07.18.07s.13-.02.18-.07c.05-.05.07-.11.07-.18s-.02-.13-.07-.18Z"/>
      <path class="cls-2" d="M230.6,33.45s-.11-.07-.18-.07-.13.02-.18.07c-.05.05-.07.11-.07.18s.02.13.07.18c.05.05.11.07.18.07s.13-.02.18-.07c.05-.05.07-.11.07-.18s-.02-.13-.07-.18Z"/>
      <path class="cls-2" d="M246.21,33.38c-.07,0-.13.02-.18.07-.05.05-.07.11-.07.18s.02.13.07.18c.05.05.11.07.18.07s.13-.02.18-.07c.05-.05.07-.11.07-.18s-.02-.13-.07-.18c-.05-.05-.11-.07-.18-.07Z"/>
      <path class="cls-2" d="M246.21,49.86c-.07,0-.13.02-.18.07s-.07.11-.07.18.02.13.07.18c.05.05.11.07.18.07s.13-.02.18-.07c.05-.05.07-.11.07-.18s-.02-.13-.07-.18c-.05-.05-.11-.07-.18-.07Z"/>
      <path class="cls-2" d="M246.21,57.94c-.07,0-.13.02-.18.07s-.07.11-.07.18.02.13.07.18c.05.05.11.07.18.07s.13-.02.18-.07c.05-.05.07-.11.07-.18s-.02-.13-.07-.18c-.05-.05-.11-.07-.18-.07Z"/>
      <path class="cls-2" d="M249.07,67.19c-.07,0-.13.02-.18.07s-.07.11-.07.18.02.13.07.18c.05.05.11.07.18.07s.13-.02.18-.07.07-.11.07-.18-.02-.13-.07-.18c-.05-.05-.11-.07-.18-.07Z"/>
      <path class="cls-2" d="M249.07,30.85c.07,0,.13-.02.18-.07s.07-.11.07-.18-.02-.13-.07-.18-.11-.07-.18-.07c-.07,0-.13.02-.18.07-.05.05-.07.11-.07.18s.02.13.07.18c.05.05.11.07.18.07Z"/>
      <path class="cls-2" d="M272.08,67.19c-.07,0-.13.02-.18.07-.05.05-.07.11-.07.18,0,.07.02.13.07.18.05.05.11.07.18.07s.13-.02.18-.07c.05-.05.07-.11.07-.18s-.02-.13-.07-.18-.11-.07-.18-.07Z"/>
      <path class="cls-2" d="M295.26,67.19c-.07,0-.13.02-.18.07-.05.05-.07.11-.07.18s.02.13.07.18c.05.05.11.07.18.07s.13-.02.18-.07c.05-.05.07-.11.07-.18s-.02-.13-.07-.18c-.05-.05-.11-.07-.18-.07Z"/>
      <path class="cls-2" d="M318.77,67.19c-.07,0-.13.02-.18.07-.05.05-.07.11-.07.18s.02.13.07.18c.05.05.11.07.18.07s.13-.02.18-.07c.05-.05.07-.11.07-.18s-.02-.13-.07-.18c-.05-.05-.11-.07-.18-.07Z"/>
      <path class="cls-2" d="M246.21,66.35c-.07,0-.13.02-.18.07-.05.05-.07.11-.07.18s.02.13.07.18c.05.05.11.07.18.07s.13-.02.18-.07c.05-.05.07-.11.07-.18s-.02-.13-.07-.18c-.05-.05-.11-.07-.18-.07Z"/>
      <path class="cls-2" d="M158.2,33.71c-.07,0-.13.02-.18.07-.05.05-.07.11-.07.18s.02.13.07.18c.05.05.11.07.18.07s.13-.02.18-.07c.05-.05.07-.11.07-.18s-.02-.13-.07-.18c-.05-.05-.11-.07-.18-.07Z"/>
      <path class="cls-2" d="M158.2,49.86c-.07,0-.13.02-.18.07s-.07.11-.07.18.02.13.07.18c.05.05.11.07.18.07s.13-.02.18-.07.07-.11.07-.18-.02-.13-.07-.18-.11-.07-.18-.07Z"/>
      <path class="cls-2" d="M158.2,58.28c-.07,0-.13.02-.18.07-.05.05-.07.11-.07.18s.02.13.07.18c.05.05.11.07.18.07.07,0,.13-.02.18-.07.05-.05.07-.11.07-.18s-.02-.13-.07-.18c-.05-.05-.11-.07-.18-.07Z"/>
      <path class="cls-2" d="M158.2,66.35c-.07,0-.13.02-.18.07-.05.05-.07.11-.07.18s.02.13.07.18c.05.05.11.07.18.07s.13-.02.18-.07c.05-.05.07-.11.07-.18s-.02-.13-.07-.18c-.05-.05-.11-.07-.18-.07Z"/>
      <path class="cls-2" d="M232.1,66.35c-.07,0-.13.02-.18.07-.05.05-.07.11-.07.18s.02.13.07.18c.05.05.11.07.18.07s.13-.02.18-.07c.05-.05.07-.11.07-.18,0-.07-.02-.13-.07-.18-.05-.05-.11-.07-.18-.07Z"/>
      <path class="cls-2" d="M232.28,58.01s-.11-.07-.18-.07-.13.02-.18.07c-.05.05-.07.11-.07.18s.02.13.07.18c.05.05.11.07.18.07s.13-.02.18-.07c.05-.05.07-.11.07-.18,0-.07-.02-.13-.07-.18Z"/>
      <path class="cls-2" d="M232.28,49.94s-.11-.07-.18-.07-.13.02-.18.07c-.05.05-.07.11-.07.18s.02.13.07.18c.05.05.11.07.18.07s.13-.02.18-.07.07-.11.07-.18c0-.07-.02-.13-.07-.18Z"/>
      <path class="cls-2" d="M232.28,33.45s-.11-.07-.18-.07-.13.02-.18.07-.07.11-.07.18.02.13.07.18c.05.05.11.07.18.07s.13-.02.18-.07c.05-.05.07-.11.07-.18,0-.07-.02-.13-.07-.18Z"/>
      <path class="cls-2" d="M247.89,33.38c-.07,0-.13.02-.18.07-.05.05-.07.11-.07.18s.02.13.07.18c.05.05.11.07.18.07s.13-.02.18-.07c.05-.05.07-.11.07-.18s-.02-.13-.07-.18c-.05-.05-.11-.07-.18-.07Z"/>
      <path class="cls-2" d="M321.64,33.45s-.11-.07-.18-.07-.13.02-.18.07c-.05.05-.07.11-.07.18s.02.13.07.18c.05.05.11.07.18.07s.13-.02.18-.07c.05-.05.07-.11.07-.18s-.02-.13-.07-.18Z"/>
      <path class="cls-2" d="M321.64,49.94s-.11-.07-.18-.07-.13.02-.18.07-.07.11-.07.18.02.13.07.18.11.07.18.07.13-.02.18-.07.07-.11.07-.18-.02-.13-.07-.18Z"/>
      <path class="cls-2" d="M321.46,57.94c-.07,0-.13.02-.18.07s-.07.11-.07.18.02.13.07.18c.05.05.11.07.18.07s.13-.02.18-.07c.05-.05.07-.11.07-.18s-.02-.13-.07-.18-.11-.07-.18-.07Z"/>
      <path class="cls-2" d="M247.89,49.86c-.07,0-.13.02-.18.07s-.07.11-.07.18.02.13.07.18.11.07.18.07.13-.02.18-.07c.05-.05.07-.11.07-.18s-.02-.13-.07-.18c-.05-.05-.11-.07-.18-.07Z"/>
      <path class="cls-2" d="M247.89,57.94c-.07,0-.13.02-.18.07s-.07.11-.07.18.02.13.07.18c.05.05.11.07.18.07s.13-.02.18-.07c.05-.05.07-.11.07-.18s-.02-.13-.07-.18c-.05-.05-.11-.07-.18-.07Z"/>
      <path class="cls-2" d="M249.07,68.87c-.07,0-.13.02-.18.07-.05.05-.07.11-.07.18s.02.13.07.18c.05.05.11.07.18.07.07,0,.13-.02.18-.07.05-.05.07-.11.07-.18s-.02-.13-.07-.18c-.05-.05-.11-.07-.18-.07Z"/>
      <path class="cls-2" d="M249.07,32.03c-.07,0-.13.02-.18.07-.05.05-.07.11-.07.18s.02.13.07.18c.05.05.11.07.18.07s.13-.02.18-.07c.05-.05.07-.11.07-.18s-.02-.13-.07-.18-.11-.07-.18-.07Z"/>
      <path class="cls-2" d="M271.91,30.85c.07,0,.13-.02.18-.07s.07-.11.07-.18-.02-.13-.07-.18c-.05-.05-.11-.07-.18-.07s-.13.02-.18.07-.07.11-.07.18.02.13.07.18.11.07.18.07Z"/>
      <path class="cls-2" d="M271.91,32.54c.07,0,.13-.02.18-.07.05-.05.07-.11.07-.18s-.02-.13-.07-.18c-.05-.05-.11-.07-.18-.07s-.13.02-.18.07-.07.11-.07.18.02.13.07.18.11.07.18.07Z"/>
      <path class="cls-2" d="M295.09,30.85c.07,0,.13-.02.18-.07.05-.05.07-.11.07-.18s-.02-.13-.07-.18c-.05-.05-.11-.07-.18-.07-.07,0-.13.02-.18.07-.05.05-.07.11-.07.18s.02.13.07.18c.05.05.11.07.18.07Z"/>
      <path class="cls-2" d="M295.09,32.54c.07,0,.13-.02.18-.07.05-.05.07-.11.07-.18s-.02-.13-.07-.18-.11-.07-.18-.07c-.07,0-.13.02-.18.07s-.07.11-.07.18.02.13.07.18c.05.05.11.07.18.07Z"/>
      <path class="cls-2" d="M318.6,30.85c.07,0,.13-.02.18-.07.05-.05.07-.11.07-.18s-.02-.13-.07-.18c-.05-.05-.11-.07-.18-.07s-.13.02-.18.07c-.05.05-.07.11-.07.18s.02.13.07.18c.05.05.11.07.18.07Z"/>
      <path class="cls-2" d="M318.6,32.54c.07,0,.13-.02.18-.07.05-.05.07-.11.07-.18s-.02-.13-.07-.18c-.05-.05-.11-.07-.18-.07s-.13.02-.18.07c-.05.05-.07.11-.07.18s.02.13.07.18c.05.05.11.07.18.07Z"/>
      <path class="cls-2" d="M272.08,68.87c-.07,0-.13.02-.18.07-.05.05-.07.11-.07.18s.02.13.07.18c.05.05.11.07.18.07s.13-.02.18-.07c.05-.05.07-.11.07-.18s-.02-.13-.07-.18c-.05-.05-.11-.07-.18-.07Z"/>
      <path class="cls-2" d="M295.26,68.87c-.07,0-.13.02-.18.07-.05.05-.07.11-.07.18s.02.13.07.18c.05.05.11.07.18.07s.13-.02.18-.07c.05-.05.07-.11.07-.18s-.02-.13-.07-.18c-.05-.05-.11-.07-.18-.07Z"/>
      <path class="cls-2" d="M318.77,68.87c-.07,0-.13.02-.18.07-.05.05-.07.11-.07.18s.02.13.07.18c.05.05.11.07.18.07s.13-.02.18-.07c.05-.05.07-.11.07-.18s-.02-.13-.07-.18c-.05-.05-.11-.07-.18-.07Z"/>
      <path class="cls-2" d="M247.89,66.35c-.07,0-.13.02-.18.07-.05.05-.07.11-.07.18s.02.13.07.18c.05.05.11.07.18.07s.13-.02.18-.07c.05-.05.07-.11.07-.18s-.02-.13-.07-.18c-.05-.05-.11-.07-.18-.07Z"/>
      <path class="cls-2" d="M3.68,55.75c.07,0,.13-.02.18-.07.05-.05.07-.11.07-.18s-.02-.13-.07-.18c-.05-.05-.11-.07-.18-.07s-.13.02-.18.07c-.05.05-.07.11-.07.18s.02.13.07.18c.05.05.11.07.18.07Z"/>
      <path class="cls-2" d="M63.47,55.75c.07,0,.13-.02.18-.07.05-.05.07-.11.07-.18s-.02-.13-.07-.18c-.05-.05-.11-.07-.18-.07s-.13.02-.18.07c-.05.05-.07.11-.07.18s.02.13.07.18c.05.05.11.07.18.07Z"/>
      <path class="cls-2" d="M3.68,71.23c.07,0,.13-.02.18-.07.05-.05.07-.11.07-.18s-.02-.13-.07-.18c-.05-.05-.11-.07-.18-.07s-.13.02-.18.07c-.05.05-.07.11-.07.18s.02.13.07.18c.05.05.11.07.18.07Z"/>
      <path class="cls-2" d="M63.47,71.23c.07,0,.13-.02.18-.07s.07-.11.07-.18-.02-.13-.07-.18c-.05-.05-.11-.07-.18-.07s-.13.02-.18.07c-.05.05-.07.11-.07.18s.02.13.07.18.11.07.18.07Z"/>
      <path class="cls-2" d="M3.68,73.75c-.07,0-.13.02-.18.07s-.07.11-.07.18.02.13.07.18.11.07.18.07.13-.02.18-.07.07-.11.07-.18-.02-.13-.07-.18-.11-.07-.18-.07Z"/>
      <path class="cls-2" d="M63.47,74.26c.07,0,.13-.02.18-.07.05-.05.07-.11.07-.18s-.02-.13-.07-.18c-.05-.05-.11-.07-.18-.07s-.13.02-.18.07c-.05.05-.07.11-.07.18s.02.13.07.18c.05.05.11.07.18.07Z"/>
      <path class="cls-2" d="M3.68,88.89c-.07,0-.13.02-.18.07-.05.05-.07.11-.07.18s.02.13.07.18c.05.05.11.07.18.07s.13-.02.18-.07c.05-.05.07-.11.07-.18s-.02-.13-.07-.18c-.05-.05-.11-.07-.18-.07Z"/>
      <path class="cls-2" d="M63.47,89.4c.07,0,.13-.02.18-.07s.07-.11.07-.18-.02-.13-.07-.18c-.05-.05-.11-.07-.18-.07s-.13.02-.18.07c-.05.05-.07.11-.07.18s.02.13.07.18.11.07.18.07Z"/>
      <path class="cls-2" d="M7.37,98.65c-.07,0-.13.02-.18.07-.05.05-.07.11-.07.18s.02.13.07.18.11.07.18.07.13-.02.18-.07c.05-.05.07-.11.07-.18s-.02-.13-.07-.18c-.05-.05-.11-.07-.18-.07Z"/>
      <path class="cls-2" d="M59.11,98.65c-.07,0-.13.02-.18.07-.05.05-.07.11-.07.18s.02.13.07.18.11.07.18.07.13-.02.18-.07c.05-.05.07-.11.07-.18s-.02-.13-.07-.18c-.05-.05-.11-.07-.18-.07Z"/>
      <path class="cls-2" d="M7.37,104.03c-.07,0-.13.02-.18.07-.05.05-.07.11-.07.18s.02.13.07.18c.05.05.11.07.18.07s.13-.02.18-.07c.05-.05.07-.11.07-.18s-.02-.13-.07-.18-.11-.07-.18-.07Z"/>
      <path class="cls-2" d="M59.11,104.03c-.07,0-.13.02-.18.07-.05.05-.07.11-.07.18s.02.13.07.18c.05.05.11.07.18.07s.13-.02.18-.07c.05-.05.07-.11.07-.18s-.02-.13-.07-.18c-.05-.05-.11-.07-.18-.07Z"/>
      <path class="cls-2" d="M8.38,40.27c.07,0,.13-.02.18-.07.05-.05.07-.11.07-.18s-.02-.13-.07-.18c-.05-.05-.11-.07-.18-.07s-.13.02-.18.07c-.05.05-.07.11-.07.18s.02.13.07.18c.05.05.11.07.18.07Z"/>
      <path class="cls-2" d="M25.18,38.93c.07,0,.13-.02.18-.07s.07-.11.07-.18-.02-.13-.07-.18c-.05-.05-.11-.07-.18-.07s-.13.02-.18.07-.07.11-.07.18.02.13.07.18c.05.05.11.07.18.07Z"/>
      <path class="cls-2" d="M25.18,40.27c.07,0,.13-.02.18-.07.05-.05.07-.11.07-.18s-.02-.13-.07-.18c-.05-.05-.11-.07-.18-.07s-.13.02-.18.07c-.05.05-.07.11-.07.18s.02.13.07.18c.05.05.11.07.18.07Z"/>
      <path class="cls-2" d="M41.97,38.93c.07,0,.13-.02.18-.07.05-.05.07-.11.07-.18s-.02-.13-.07-.18-.11-.07-.18-.07-.13.02-.18.07c-.05.05-.07.11-.07.18s.02.13.07.18.11.07.18.07Z"/>
      <path class="cls-2" d="M41.97,40.27c.07,0,.13-.02.18-.07.05-.05.07-.11.07-.18s-.02-.13-.07-.18c-.05-.05-.11-.07-.18-.07s-.13.02-.18.07c-.05.05-.07.11-.07.18s.02.13.07.18c.05.05.11.07.18.07Z"/>
      <path class="cls-2" d="M58.77,38.93c.07,0,.13-.02.18-.07.05-.05.07-.11.07-.18s-.02-.13-.07-.18c-.05-.05-.11-.07-.18-.07s-.13.02-.18.07c-.05.05-.07.11-.07.18s.02.13.07.18.11.07.18.07Z"/>
      <path class="cls-2" d="M58.77,40.27c.07,0,.13-.02.18-.07.05-.05.07-.11.07-.18s-.02-.13-.07-.18c-.05-.05-.11-.07-.18-.07s-.13.02-.18.07c-.05.05-.07.11-.07.18s.02.13.07.18c.05.05.11.07.18.07Z"/>
      <path class="cls-2" d="M8.38,69.38c-.07,0-.13.02-.18.07-.05.05-.07.11-.07.18s.02.13.07.18c.05.05.11.07.18.07s.13-.02.18-.07c.05-.05.07-.11.07-.18s-.02-.13-.07-.18c-.05-.05-.11-.07-.18-.07Z"/>
      <path class="cls-2" d="M8.38,70.72c-.07,0-.13.02-.18.07s-.07.11-.07.18.02.13.07.18c.05.05.11.07.18.07s.13-.02.18-.07c.05-.05.07-.11.07-.18s-.02-.13-.07-.18-.11-.07-.18-.07Z"/>
      <path class="cls-2" d="M25.18,69.38c-.07,0-.13.02-.18.07-.05.05-.07.11-.07.18s.02.13.07.18c.05.05.11.07.18.07s.13-.02.18-.07.07-.11.07-.18-.02-.13-.07-.18c-.05-.05-.11-.07-.18-.07Z"/>
      <path class="cls-2" d="M25.18,70.72c-.07,0-.13.02-.18.07-.05.05-.07.11-.07.18s.02.13.07.18c.05.05.11.07.18.07s.13-.02.18-.07.07-.11.07-.18-.02-.13-.07-.18c-.05-.05-.11-.07-.18-.07Z"/>
      <path class="cls-2" d="M41.97,69.38c-.07,0-.13.02-.18.07-.05.05-.07.11-.07.18s.02.13.07.18.11.07.18.07.13-.02.18-.07c.05-.05.07-.11.07-.18s-.02-.13-.07-.18c-.05-.05-.11-.07-.18-.07Z"/>
      <path class="cls-2" d="M41.97,70.72c-.07,0-.13.02-.18.07-.05.05-.07.11-.07.18s.02.13.07.18.11.07.18.07.13-.02.18-.07c.05-.05.07-.11.07-.18s-.02-.13-.07-.18c-.05-.05-.11-.07-.18-.07Z"/>
      <path class="cls-2" d="M58.77,69.38c-.07,0-.13.02-.18.07-.05.05-.07.11-.07.18s.02.13.07.18.11.07.18.07.13-.02.18-.07c.05-.05.07-.11.07-.18s-.02-.13-.07-.18c-.05-.05-.11-.07-.18-.07Z"/>
      <path class="cls-2" d="M58.77,70.72c-.07,0-.13.02-.18.07-.05.05-.07.11-.07.18s.02.13.07.18.11.07.18.07.13-.02.18-.07c.05-.05.07-.11.07-.18s-.02-.13-.07-.18-.11-.07-.18-.07Z"/>
    </g>
  </g>
</svg>