<?xml version="1.0" encoding="UTF-8"?>
<svg id="Layer_2" data-name="Layer 2" xmlns="http://www.w3.org/2000/svg" viewBox="0 0 24 21.33">
  <g id="Layer_1-2" data-name="Layer 1">
    <path d="M.52,0h22.95c.29,0,.52.23.52.52v1.62c0,.29-.23.52-.52.52H.52c-.29,0-.52-.23-.52-.52V.52C0,.23.23,0,.52,0ZM.52,9.33h22.95c.29,0,.52.23.52.52v1.62c0,.29-.23.52-.52.52H.52c-.29,0-.52-.23-.52-.52v-1.62c0-.29.23-.52.52-.52ZM.52,18.67h22.95c.29,0,.52.23.52.52v1.62c0,.29-.23.52-.52.52H.52c-.29,0-.52-.23-.52-.52v-1.62c0-.29.23-.52.52-.52Z"/>
  </g>
</svg>